<svg width="1400" height="1107" viewBox="0 0 1400 1107" fill="none" xmlns="http://www.w3.org/2000/svg">
<g clip-path="url(#clip0_2627_5567)">
<rect width="1400" height="1107" fill="white"/>
<path d="M1059 287.27V510.539L879 599.673V376.4L1059 287.27Z" fill="#238298"/>
<path d="M699 287.27V510.539L879 599.673V376.4L699 287.27Z" fill="#5AB7CC"/>
<path d="M699 287.269L879 199L1059 287.27L879 376.4L699 287.269Z" fill="#36A5BF"/>
<path d="M520 598.27V821.539L340 910.673V687.4L520 598.27Z" fill="#238298"/>
<path d="M160 598.27V821.539L340 910.673V687.4L160 598.27Z" fill="#5AB7CC"/>
<path d="M160 598.269L340 510L520 598.27L340 687.4L160 598.269Z" fill="#36A5BF"/>
<path d="M520 -23.7305V199.539L340 288.673V65.4L520 -23.7305Z" fill="#238298"/>
<path d="M160 -23.7305V199.539L340 288.673V65.4L160 -23.7305Z" fill="#5AB7CC"/>
<path d="M160 -23.7308L340 -112L520 -23.73L340 65.4L160 -23.7308Z" fill="#36A5BF"/>
<path d="M880 -24.7305V198.539L700 287.673V64.4L880 -24.7305Z" fill="#A78457"/>
<path d="M520 -24.7305V198.539L700 287.673V64.4L520 -24.7305Z" fill="#CCA067"/>
<path d="M520 -24.7308L700 -113L880 -24.73L700 64.4L520 -24.7308Z" fill="#BF9969"/>
<path d="M700 287.27V510.539L520 599.673V376.4L700 287.27Z" fill="#802C1A"/>
<path d="M340 287.27V510.539L520 599.673V376.4L340 287.27Z" fill="#B14F39"/>
<path d="M340 287.269L520 199L700 287.27L520 376.4L340 287.269Z" fill="#A64029"/>
<path d="M1239 -23.7305V199.539L1059 288.673V65.4L1239 -23.7305Z" fill="#802C1A"/>
<path d="M879 -23.7305V199.539L1059 288.673V65.4L879 -23.7305Z" fill="#B14F39"/>
<path d="M879 -23.7308L1059 -112L1239 -23.73L1059 65.4L879 -23.7308Z" fill="#A64029"/>
<path d="M1240 597.27V820.539L1060 909.673V686.4L1240 597.27Z" fill="#802C1A"/>
<path d="M880 597.27V820.539L1060 909.673V686.4L880 597.27Z" fill="#B14F39"/>
<path d="M880 597.269L1060 509L1240 597.27L1060 686.4L880 597.269Z" fill="#A64029"/>
<path d="M880 597.27V820.539L700 909.673V686.4L880 597.27Z" fill="#A78457"/>
<path d="M520 597.27V820.539L700 909.673V686.4L520 597.27Z" fill="#CCA067"/>
<path d="M520 597.269L700 509L880 597.27L700 686.4L520 597.269Z" fill="#BF9969"/>
<path d="M1419 287.27V510.539L1239 599.673V376.4L1419 287.27Z" fill="#A78457"/>
<path d="M1059 287.27V510.539L1239 599.673V376.4L1059 287.27Z" fill="#CCA067"/>
<path d="M1059 287.269L1239 199L1419 287.27L1239 376.4L1059 287.269Z" fill="#BF9969"/>
<path d="M340 287.27V510.539L160 599.673V376.4L340 287.27Z" fill="#A78457"/>
<path d="M-20 287.27V510.539L160 599.673V376.4L-20 287.27Z" fill="#CCA067"/>
<path d="M-20 287.269L160 199L340 287.27L160 376.4L-20 287.269Z" fill="#BF9969"/>
<path d="M1059 907.27V1130.54L879 1219.67V996.4L1059 907.27Z" fill="#802C1A"/>
<path d="M699 907.27V1130.54L879 1219.67V996.4L699 907.27Z" fill="#B14F39"/>
<path d="M699 907.269L879 819L1059 907.27L879 996.4L699 907.269Z" fill="#A64029"/>
<path d="M699 907.27V1130.54L519 1219.67V996.4L699 907.27Z" fill="#238298"/>
<path d="M339 907.27V1130.54L519 1219.67V996.4L339 907.27Z" fill="#5AB7CC"/>
<path d="M339 907.269L519 819L699 907.27L519 996.4L339 907.269Z" fill="#36A5BF"/>
<path d="M1240 598.27V821.539L1420 910.673V687.4L1240 598.27Z" fill="#5AB7CC"/>
<path d="M1240 598.269L1420 510L1600 598.27L1420 687.4L1240 598.269Z" fill="#36A5BF"/>
<path d="M1419 908.27V1131.54L1239 1220.67V997.4L1419 908.27Z" fill="#A78457"/>
<path d="M1059 908.27V1131.54L1239 1220.67V997.4L1059 908.27Z" fill="#CCA067"/>
<path d="M1059 908.269L1239 820L1419 908.27L1239 997.4L1059 908.269Z" fill="#BF9969"/>
<path d="M160 -23.7305V199.539L-20 288.673V65.4L160 -23.7305Z" fill="#A78457"/>
<path d="M-200 -23.7308L-20 -112L160 -23.73L-20 65.4L-200 -23.7308Z" fill="#BF9969"/>
<path d="M160 599.27V822.539L-20 911.673V688.4L160 599.27Z" fill="#802C1A"/>
<path d="M-200 599.269L-20 511L160 599.27L-20 688.4L-200 599.269Z" fill="#A64029"/>
<path d="M340 908.27V1131.54L160 1220.67V997.4L340 908.27Z" fill="#802C1A"/>
<path d="M-20 908.27V1131.54L160 1220.67V997.4L-20 908.27Z" fill="#B14F39"/>
<path d="M-20 908.269L160 820L340 908.27L160 997.4L-20 908.269Z" fill="#A64029"/>
<path d="M1239 -23.7305V199.539L1419 288.673V65.4L1239 -23.7305Z" fill="#5AB7CC"/>
<path d="M1239 -23.7308L1419 -112L1599 -23.73L1419 65.4L1239 -23.7308Z" fill="#36A5BF"/>
</g>
<defs>
<clipPath id="clip0_2627_5567">
<rect width="1400" height="1107" fill="white"/>
</clipPath>
</defs>
</svg>
