<svg width="1080" height="1080" viewBox="0 0 1080 1080" fill="none" xmlns="http://www.w3.org/2000/svg">
<rect width="1080" height="1080" fill="black"/>
<path d="M333.145 845.756C333.145 852.872 337.166 859.378 343.531 862.561L354.282 867.936C363.993 872.792 375.419 865.73 375.419 854.873V486.558C375.419 472.61 390.082 463.525 402.572 469.734L515.483 525.873C527.973 532.083 542.636 522.998 542.636 509.049V492.402L166.867 304.517V339.906C166.867 347.007 170.871 353.502 177.215 356.692L322.797 429.894C329.141 433.084 333.145 439.578 333.145 446.68V845.756Z" fill="white"/>
<path d="M333.145 845.756C333.145 852.872 337.166 859.378 343.531 862.561L354.282 867.936C363.993 872.792 375.419 865.73 375.419 854.873V486.558C375.419 472.61 390.082 463.525 402.572 469.734L515.483 525.873C527.973 532.083 542.636 522.998 542.636 509.049V492.402L166.867 304.517V339.906C166.867 347.007 170.871 353.502 177.215 356.692L322.797 429.894C329.141 433.084 333.145 439.578 333.145 446.68V845.756Z" fill="white"/>
<path d="M542.636 492.402L542.636 935.856C542.636 947.919 555.332 955.766 566.122 950.371L579.221 943.821C585.587 940.638 589.607 934.132 589.607 927.016V785.841C589.607 778.724 593.628 772.218 599.993 769.036L844.243 646.911C856.736 640.665 871.434 649.749 871.434 663.716V771.457C871.434 783.52 884.13 791.367 894.92 785.972L908.02 779.422C914.385 776.239 918.406 769.733 918.406 762.617V304.517L542.636 492.402Z" fill="white"/>
<path d="M542.636 492.402L542.636 935.856C542.636 947.919 555.332 955.766 566.122 950.371L579.221 943.821C585.587 940.638 589.607 934.132 589.607 927.016V785.841C589.607 778.724 593.628 772.218 599.993 769.036L844.243 646.911C856.736 640.665 871.434 649.749 871.434 663.716V771.457C871.434 783.52 884.13 791.367 894.92 785.972L908.02 779.422C914.385 776.239 918.406 769.733 918.406 762.617V304.517L542.636 492.402Z" fill="white"/>
<path d="M206.276 315.806C200.984 318.457 194.751 318.459 189.457 315.812L166.867 304.517L534.234 120.834C539.523 118.189 545.749 118.189 551.039 120.834L918.406 304.517L882.708 322.366L551.121 151.652C545.789 148.906 539.466 148.872 534.104 151.558L206.276 315.806Z" fill="white"/>
<path d="M166.867 304.517V339.906C166.867 347.007 170.871 353.502 177.215 356.692L322.797 429.894C329.141 433.084 333.145 439.578 333.145 446.68V845.756C333.145 852.872 337.166 859.378 343.531 862.561L354.282 867.936V867.936C363.993 872.792 375.419 865.73 375.419 854.873V486.558C375.419 472.61 390.082 463.525 402.572 469.734L515.483 525.873C527.973 532.083 542.636 522.998 542.636 509.049V492.402M166.867 304.517L542.636 492.402M166.867 304.517L189.457 315.812C194.751 318.459 200.984 318.457 206.276 315.806L534.104 151.558C539.466 148.872 545.789 148.906 551.121 151.652L882.708 322.366L918.406 304.517M166.867 304.517L534.234 120.834C539.523 118.189 545.749 118.189 551.039 120.834L918.406 304.517M542.636 492.402L542.636 935.856C542.636 947.919 555.332 955.766 566.122 950.371V950.371L579.221 943.821C585.587 940.638 589.607 934.132 589.607 927.016V785.841C589.607 778.724 593.628 772.218 599.994 769.036L844.243 646.911C856.736 640.665 871.434 649.749 871.434 663.716V771.457C871.434 783.52 884.13 791.367 894.92 785.972V785.972L908.02 779.422C914.385 776.239 918.406 769.733 918.406 762.617V304.517M542.636 492.402L918.406 304.517M599.994 510.694L844.243 388.57C856.736 382.323 871.434 391.407 871.434 405.374V574.732C871.434 581.849 867.414 588.355 861.048 591.537L616.798 713.662C604.306 719.908 589.607 710.824 589.607 696.857V527.499C589.607 520.383 593.628 513.877 599.994 510.694Z" stroke="white" stroke-width="18.7885" stroke-linejoin="round"/>
<path d="M866.236 588.939L603.197 720.458C596.951 723.582 589.602 719.04 589.602 712.056V521.692C589.602 518.134 591.612 514.881 594.795 513.29L857.833 381.77C864.079 378.647 871.428 383.189 871.428 390.173V580.537C871.428 584.095 869.418 587.348 866.236 588.939Z" fill="black"/>
</svg>
