<svg width="266" height="266" viewBox="0 0 266 266" fill="none" xmlns="http://www.w3.org/2000/svg">
<path d="M128.07 133.856C125.956 133.856 124.694 133.944 122.727 132.975C110.397 126.927 98.2724 121.046 86.3534 115.331C85.9509 115.138 85.5059 115.049 85.06 115.074C84.614 115.1 84.1818 115.237 83.8035 115.475C83.4252 115.712 83.1134 116.042 82.897 116.433C82.6807 116.823 82.5669 117.263 82.5664 117.709V233.728C82.5646 234.739 82.3417 235.737 81.9134 236.652C81.485 237.568 80.8615 238.379 80.0867 239.028C79.3118 239.677 78.4044 240.148 77.4279 240.409C76.4515 240.67 75.4298 240.715 74.4345 240.539L72.6143 240.216C66.2732 239.081 63.1026 235.294 63.1026 228.855V105.262C63.1039 104.865 62.9952 104.474 62.7882 104.133C62.5812 103.791 62.2838 103.512 61.9284 103.324L14.2819 79.545C13.1876 78.9992 12.2672 78.1606 11.6241 77.1234C10.9811 76.0862 10.6408 74.8915 10.6416 73.6736V61.1381C10.6416 59.9443 11.1798 59.0929 12.2562 58.5841C57.4465 36.4684 92.3031 19.138 116.826 6.59273C122.326 3.77445 127.404 1.6216 132.062 0.134174C132.817 -0.0929627 133.624 -0.0300696 134.323 0.310317L252.162 58.3492C252.708 58.6139 253.168 59.0268 253.49 59.5408C253.812 60.0548 253.982 60.6491 253.982 61.2556V204.312C253.983 206.524 253.222 208.669 251.828 210.39C250.433 212.11 248.489 213.302 246.32 213.765L243.179 214.441C241.996 214.695 240.772 214.682 239.595 214.403C238.419 214.124 237.32 213.587 236.38 212.829C235.439 212.072 234.681 211.114 234.161 210.027C233.641 208.939 233.372 207.749 233.374 206.544L233.315 172.959C233.317 172.508 233.203 172.065 232.985 171.67C232.768 171.276 232.452 170.944 232.07 170.706C231.687 170.467 231.25 170.331 230.8 170.309C230.35 170.287 229.902 170.381 229.498 170.581L152.26 208.863C151.607 209.19 151.058 209.696 150.674 210.323C150.291 210.951 150.088 211.675 150.088 212.415V254.249C150.088 260.746 146.878 264.534 140.458 265.61L139.636 265.757C132.904 266.892 129.538 264.054 129.538 257.243V135.323C129.538 134.364 129.048 133.875 128.07 133.856ZM132.385 116.388C132.513 116.453 132.653 116.486 132.796 116.486C132.939 116.486 133.08 116.453 133.207 116.388L231.612 67.5086C231.76 67.4317 231.884 67.3158 231.97 67.1735C232.056 67.0311 232.102 66.8678 232.102 66.7013C232.102 66.5348 232.056 66.3714 231.97 66.2291C231.884 66.0867 231.76 65.9708 231.612 65.894L132.444 15.3705C132.317 15.306 132.176 15.2724 132.033 15.2724C131.89 15.2724 131.749 15.306 131.622 15.3705L31.4557 65.4536C31.3003 65.5275 31.169 65.6439 31.077 65.7894C30.9851 65.9349 30.9363 66.1035 30.9363 66.2756C30.9363 66.4477 30.9851 66.6163 31.077 66.7618C31.169 66.9073 31.3003 67.0237 31.4557 67.0976L132.385 116.388ZM234.695 150.119C235.179 149.883 235.586 149.516 235.872 149.059C236.157 148.602 236.309 148.074 236.309 147.536V87.8237C236.309 87.3357 236.185 86.8559 235.948 86.4292C235.711 86.0026 235.369 85.6432 234.955 85.3849C234.542 85.1265 234.069 84.9777 233.581 84.9524C233.094 84.9271 232.608 85.0262 232.17 85.2403L148.767 126.281C148.283 126.518 147.875 126.885 147.589 127.342C147.304 127.799 147.152 128.326 147.152 128.865V188.46C147.152 188.948 147.277 189.427 147.513 189.854C147.75 190.281 148.092 190.64 148.506 190.898C148.92 191.157 149.392 191.306 149.88 191.331C150.367 191.356 150.853 191.257 151.291 191.043L234.695 150.119Z" fill="white"/>
</svg>
