<?xml version="1.0" encoding="utf-8"?><svg xmlns="http://www.w3.org/2000/svg" xmlns:xlink="http://www.w3.org/1999/xlink" class="qr-svg qrcode" viewBox="0 0 1024 1024" preserveAspectRatio="xMinYMin"><rect x="0" y="0" width="1024" height="1024" fill="#ffffff" /><defs><style type="text/css"><![CDATA[.light { fill: none; } ]]></style>
</defs><symbol id="symbol-data" class="qrcode-symbol data"><path class="" d="M248.24242424242 0 h31.030303030303 v31.030303030303 h-31.030303030303Z  M372.36363636364 0 h31.030303030303 v31.030303030303 h-31.030303030303Z  M558.54545454545 0 h31.030303030303 v31.030303030303 h-31.030303030303Z  M620.60606060606 0 h31.030303030303 v31.030303030303 h-31.030303030303Z  M651.63636363636 0 h31.030303030303 v31.030303030303 h-31.030303030303Z  M682.66666666667 0 h31.030303030303 v31.030303030303 h-31.030303030303Z  M713.69696969697 0 h31.030303030303 v31.030303030303 h-31.030303030303Z  M744.72727272727 0 h31.030303030303 v31.030303030303 h-31.030303030303Z  M341.33333333333 31.030303030303 h31.030303030303 v31.030303030303 h-31.030303030303Z  M372.36363636364 31.030303030303 h31.030303030303 v31.030303030303 h-31.030303030303Z  M465.45454545455 31.030303030303 h31.030303030303 v31.030303030303 h-31.030303030303Z  M527.51515151515 31.030303030303 h31.030303030303 v31.030303030303 h-31.030303030303Z  M558.54545454545 31.030303030303 h31.030303030303 v31.030303030303 h-31.030303030303Z  M589.57575757576 31.030303030303 h31.030303030303 v31.030303030303 h-31.030303030303Z  M682.66666666667 31.030303030303 h31.030303030303 v31.030303030303 h-31.030303030303Z  M713.69696969697 31.030303030303 h31.030303030303 v31.030303030303 h-31.030303030303Z  M279.27272727273 62.060606060606 h31.030303030303 v31.030303030303 h-31.030303030303Z  M310.30303030303 62.060606060606 h31.030303030303 v31.030303030303 h-31.030303030303Z  M403.39393939394 62.060606060606 h31.030303030303 v31.030303030303 h-31.030303030303Z  M496.48484848485 62.060606060606 h31.030303030303 v31.030303030303 h-31.030303030303Z  M682.66666666667 62.060606060606 h31.030303030303 v31.030303030303 h-31.030303030303Z  M713.69696969697 62.060606060606 h31.030303030303 v31.030303030303 h-31.030303030303Z  M744.72727272727 62.060606060606 h31.030303030303 v31.030303030303 h-31.030303030303Z  M248.24242424242 93.090909090909 h31.030303030303 v31.030303030303 h-31.030303030303Z  M279.27272727273 93.090909090909 h31.030303030303 v31.030303030303 h-31.030303030303Z  M310.30303030303 93.090909090909 h31.030303030303 v31.030303030303 h-31.030303030303Z  M341.33333333333 93.090909090909 h31.030303030303 v31.030303030303 h-31.030303030303Z  M372.36363636364 93.090909090909 h31.030303030303 v31.030303030303 h-31.030303030303Z  M403.39393939394 93.090909090909 h31.030303030303 v31.030303030303 h-31.030303030303Z  M434.42424242424 93.090909090909 h31.030303030303 v31.030303030303 h-31.030303030303Z  M465.45454545455 93.090909090909 h31.030303030303 v31.030303030303 h-31.030303030303Z  M496.48484848485 93.090909090909 h31.030303030303 v31.030303030303 h-31.030303030303Z  M527.51515151515 93.090909090909 h31.030303030303 v31.030303030303 h-31.030303030303Z  M558.54545454545 93.090909090909 h31.030303030303 v31.030303030303 h-31.030303030303Z  M589.57575757576 93.090909090909 h31.030303030303 v31.030303030303 h-31.030303030303Z  M620.60606060606 93.090909090909 h31.030303030303 v31.030303030303 h-31.030303030303Z  M682.66666666667 93.090909090909 h31.030303030303 v31.030303030303 h-31.030303030303Z  M744.72727272727 93.090909090909 h31.030303030303 v31.030303030303 h-31.030303030303Z  M372.36363636364 124.12121212121 h31.030303030303 v31.030303030303 h-31.030303030303Z  M403.39393939394 124.12121212121 h31.030303030303 v31.030303030303 h-31.030303030303Z  M434.42424242424 124.12121212121 h31.030303030303 v31.030303030303 h-31.030303030303Z  M465.45454545455 124.12121212121 h31.030303030303 v31.030303030303 h-31.030303030303Z  M496.48484848485 124.12121212121 h31.030303030303 v31.030303030303 h-31.030303030303Z  M527.51515151515 124.12121212121 h31.030303030303 v31.030303030303 h-31.030303030303Z  M589.57575757576 124.12121212121 h31.030303030303 v31.030303030303 h-31.030303030303Z  M682.66666666667 124.12121212121 h31.030303030303 v31.030303030303 h-31.030303030303Z  M744.72727272727 124.12121212121 h31.030303030303 v31.030303030303 h-31.030303030303Z  M279.27272727273 155.15151515152 h31.030303030303 v31.030303030303 h-31.030303030303Z  M372.36363636364 155.15151515152 h31.030303030303 v31.030303030303 h-31.030303030303Z  M434.42424242424 155.15151515152 h31.030303030303 v31.030303030303 h-31.030303030303Z  M465.45454545455 155.15151515152 h31.030303030303 v31.030303030303 h-31.030303030303Z  M558.54545454545 155.15151515152 h31.030303030303 v31.030303030303 h-31.030303030303Z  M589.57575757576 155.15151515152 h31.030303030303 v31.030303030303 h-31.030303030303Z  M651.63636363636 155.15151515152 h31.030303030303 v31.030303030303 h-31.030303030303Z  M713.69696969697 155.15151515152 h31.030303030303 v31.030303030303 h-31.030303030303Z  M744.72727272727 155.15151515152 h31.030303030303 v31.030303030303 h-31.030303030303Z  M248.24242424242 186.18181818182 h31.030303030303 v31.030303030303 h-31.030303030303Z  M310.30303030303 186.18181818182 h31.030303030303 v31.030303030303 h-31.030303030303Z  M372.36363636364 186.18181818182 h31.030303030303 v31.030303030303 h-31.030303030303Z  M434.42424242424 186.18181818182 h31.030303030303 v31.030303030303 h-31.030303030303Z  M496.48484848485 186.18181818182 h31.030303030303 v31.030303030303 h-31.030303030303Z  M558.54545454545 186.18181818182 h31.030303030303 v31.030303030303 h-31.030303030303Z  M620.60606060606 186.18181818182 h31.030303030303 v31.030303030303 h-31.030303030303Z  M682.66666666667 186.18181818182 h31.030303030303 v31.030303030303 h-31.030303030303Z  M744.72727272727 186.18181818182 h31.030303030303 v31.030303030303 h-31.030303030303Z  M341.33333333333 217.21212121212 h31.030303030303 v31.030303030303 h-31.030303030303Z  M403.39393939394 217.21212121212 h31.030303030303 v31.030303030303 h-31.030303030303Z  M434.42424242424 217.21212121212 h31.030303030303 v31.030303030303 h-31.030303030303Z  M465.45454545455 217.21212121212 h31.030303030303 v31.030303030303 h-31.030303030303Z  M558.54545454545 217.21212121212 h31.030303030303 v31.030303030303 h-31.030303030303Z  M651.63636363636 217.21212121212 h31.030303030303 v31.030303030303 h-31.030303030303Z  M682.66666666667 217.21212121212 h31.030303030303 v31.030303030303 h-31.030303030303Z  M713.69696969697 217.21212121212 h31.030303030303 v31.030303030303 h-31.030303030303Z  M62.060606060606 248.24242424242 h31.030303030303 v31.030303030303 h-31.030303030303Z  M124.12121212121 248.24242424242 h31.030303030303 v31.030303030303 h-31.030303030303Z  M155.15151515152 248.24242424242 h31.030303030303 v31.030303030303 h-31.030303030303Z  M186.18181818182 248.24242424242 h31.030303030303 v31.030303030303 h-31.030303030303Z  M248.24242424242 248.24242424242 h31.030303030303 v31.030303030303 h-31.030303030303Z  M279.27272727273 248.24242424242 h31.030303030303 v31.030303030303 h-31.030303030303Z  M310.30303030303 248.24242424242 h31.030303030303 v31.030303030303 h-31.030303030303Z  M341.33333333333 248.24242424242 h31.030303030303 v31.030303030303 h-31.030303030303Z  M372.36363636364 248.24242424242 h31.030303030303 v31.030303030303 h-31.030303030303Z  M465.45454545455 248.24242424242 h31.030303030303 v31.030303030303 h-31.030303030303Z  M496.48484848485 248.24242424242 h31.030303030303 v31.030303030303 h-31.030303030303Z  M527.51515151515 248.24242424242 h31.030303030303 v31.030303030303 h-31.030303030303Z  M651.63636363636 248.24242424242 h31.030303030303 v31.030303030303 h-31.030303030303Z  M775.75757575758 248.24242424242 h31.030303030303 v31.030303030303 h-31.030303030303Z  M899.87878787879 248.24242424242 h31.030303030303 v31.030303030303 h-31.030303030303Z  M992.9696969697 248.24242424242 h31.030303030303 v31.030303030303 h-31.030303030303Z  M0 279.27272727273 h31.030303030303 v31.030303030303 h-31.030303030303Z  M93.090909090909 279.27272727273 h31.030303030303 v31.030303030303 h-31.030303030303Z  M124.12121212121 279.27272727273 h31.030303030303 v31.030303030303 h-31.030303030303Z  M217.21212121212 279.27272727273 h31.030303030303 v31.030303030303 h-31.030303030303Z  M279.27272727273 279.27272727273 h31.030303030303 v31.030303030303 h-31.030303030303Z  M310.30303030303 279.27272727273 h31.030303030303 v31.030303030303 h-31.030303030303Z  M372.36363636364 279.27272727273 h31.030303030303 v31.030303030303 h-31.030303030303Z  M496.48484848485 279.27272727273 h31.030303030303 v31.030303030303 h-31.030303030303Z  M682.66666666667 279.27272727273 h31.030303030303 v31.030303030303 h-31.030303030303Z  M806.78787878788 279.27272727273 h31.030303030303 v31.030303030303 h-31.030303030303Z  M930.90909090909 279.27272727273 h31.030303030303 v31.030303030303 h-31.030303030303Z  M992.9696969697 279.27272727273 h31.030303030303 v31.030303030303 h-31.030303030303Z  M62.060606060606 310.30303030303 h31.030303030303 v31.030303030303 h-31.030303030303Z  M93.090909090909 310.30303030303 h31.030303030303 v31.030303030303 h-31.030303030303Z  M186.18181818182 310.30303030303 h31.030303030303 v31.030303030303 h-31.030303030303Z  M217.21212121212 310.30303030303 h31.030303030303 v31.030303030303 h-31.030303030303Z  M279.27272727273 310.30303030303 h31.030303030303 v31.030303030303 h-31.030303030303Z  M372.36363636364 310.30303030303 h31.030303030303 v31.030303030303 h-31.030303030303Z  M403.39393939394 310.30303030303 h31.030303030303 v31.030303030303 h-31.030303030303Z  M434.42424242424 310.30303030303 h31.030303030303 v31.030303030303 h-31.030303030303Z  M496.48484848485 310.30303030303 h31.030303030303 v31.030303030303 h-31.030303030303Z  M589.57575757576 310.30303030303 h31.030303030303 v31.030303030303 h-31.030303030303Z  M620.60606060606 310.30303030303 h31.030303030303 v31.030303030303 h-31.030303030303Z  M651.63636363636 310.30303030303 h31.030303030303 v31.030303030303 h-31.030303030303Z  M744.72727272727 310.30303030303 h31.030303030303 v31.030303030303 h-31.030303030303Z  M775.75757575758 310.30303030303 h31.030303030303 v31.030303030303 h-31.030303030303Z  M868.84848484848 310.30303030303 h31.030303030303 v31.030303030303 h-31.030303030303Z  M899.87878787879 310.30303030303 h31.030303030303 v31.030303030303 h-31.030303030303Z  M961.93939393939 310.30303030303 h31.030303030303 v31.030303030303 h-31.030303030303Z  M992.9696969697 310.30303030303 h31.030303030303 v31.030303030303 h-31.030303030303Z  M93.090909090909 341.33333333333 h31.030303030303 v31.030303030303 h-31.030303030303Z  M124.12121212121 341.33333333333 h31.030303030303 v31.030303030303 h-31.030303030303Z  M155.15151515152 341.33333333333 h31.030303030303 v31.030303030303 h-31.030303030303Z  M217.21212121212 341.33333333333 h31.030303030303 v31.030303030303 h-31.030303030303Z  M248.24242424242 341.33333333333 h31.030303030303 v31.030303030303 h-31.030303030303Z  M279.27272727273 341.33333333333 h31.030303030303 v31.030303030303 h-31.030303030303Z  M465.45454545455 341.33333333333 h31.030303030303 v31.030303030303 h-31.030303030303Z  M496.48484848485 341.33333333333 h31.030303030303 v31.030303030303 h-31.030303030303Z  M620.60606060606 341.33333333333 h31.030303030303 v31.030303030303 h-31.030303030303Z  M744.72727272727 341.33333333333 h31.030303030303 v31.030303030303 h-31.030303030303Z  M806.78787878788 341.33333333333 h31.030303030303 v31.030303030303 h-31.030303030303Z  M0 372.36363636364 h31.030303030303 v31.030303030303 h-31.030303030303Z  M93.090909090909 372.36363636364 h31.030303030303 v31.030303030303 h-31.030303030303Z  M186.18181818182 372.36363636364 h31.030303030303 v31.030303030303 h-31.030303030303Z  M279.27272727273 372.36363636364 h31.030303030303 v31.030303030303 h-31.030303030303Z  M372.36363636364 372.36363636364 h31.030303030303 v31.030303030303 h-31.030303030303Z  M527.51515151515 372.36363636364 h31.030303030303 v31.030303030303 h-31.030303030303Z  M713.69696969697 372.36363636364 h31.030303030303 v31.030303030303 h-31.030303030303Z  M744.72727272727 372.36363636364 h31.030303030303 v31.030303030303 h-31.030303030303Z  M775.75757575758 372.36363636364 h31.030303030303 v31.030303030303 h-31.030303030303Z  M806.78787878788 372.36363636364 h31.030303030303 v31.030303030303 h-31.030303030303Z  M899.87878787879 372.36363636364 h31.030303030303 v31.030303030303 h-31.030303030303Z  M992.9696969697 372.36363636364 h31.030303030303 v31.030303030303 h-31.030303030303Z  M62.060606060606 403.39393939394 h31.030303030303 v31.030303030303 h-31.030303030303Z  M93.090909090909 403.39393939394 h31.030303030303 v31.030303030303 h-31.030303030303Z  M217.21212121212 403.39393939394 h31.030303030303 v31.030303030303 h-31.030303030303Z  M248.24242424242 403.39393939394 h31.030303030303 v31.030303030303 h-31.030303030303Z  M310.30303030303 403.39393939394 h31.030303030303 v31.030303030303 h-31.030303030303Z  M465.45454545455 403.39393939394 h31.030303030303 v31.030303030303 h-31.030303030303Z  M589.57575757576 403.39393939394 h31.030303030303 v31.030303030303 h-31.030303030303Z  M620.60606060606 403.39393939394 h31.030303030303 v31.030303030303 h-31.030303030303Z  M775.75757575758 403.39393939394 h31.030303030303 v31.030303030303 h-31.030303030303Z  M806.78787878788 403.39393939394 h31.030303030303 v31.030303030303 h-31.030303030303Z  M899.87878787879 403.39393939394 h31.030303030303 v31.030303030303 h-31.030303030303Z  M930.90909090909 403.39393939394 h31.030303030303 v31.030303030303 h-31.030303030303Z  M961.93939393939 403.39393939394 h31.030303030303 v31.030303030303 h-31.030303030303Z  M992.9696969697 403.39393939394 h31.030303030303 v31.030303030303 h-31.030303030303Z  M62.060606060606 434.42424242424 h31.030303030303 v31.030303030303 h-31.030303030303Z  M155.15151515152 434.42424242424 h31.030303030303 v31.030303030303 h-31.030303030303Z  M186.18181818182 434.42424242424 h31.030303030303 v31.030303030303 h-31.030303030303Z  M217.21212121212 434.42424242424 h31.030303030303 v31.030303030303 h-31.030303030303Z  M310.30303030303 434.42424242424 h31.030303030303 v31.030303030303 h-31.030303030303Z  M372.36363636364 434.42424242424 h31.030303030303 v31.030303030303 h-31.030303030303Z  M589.57575757576 434.42424242424 h31.030303030303 v31.030303030303 h-31.030303030303Z  M620.60606060606 434.42424242424 h31.030303030303 v31.030303030303 h-31.030303030303Z  M651.63636363636 434.42424242424 h31.030303030303 v31.030303030303 h-31.030303030303Z  M775.75757575758 434.42424242424 h31.030303030303 v31.030303030303 h-31.030303030303Z  M837.81818181818 434.42424242424 h31.030303030303 v31.030303030303 h-31.030303030303Z  M930.90909090909 434.42424242424 h31.030303030303 v31.030303030303 h-31.030303030303Z  M961.93939393939 434.42424242424 h31.030303030303 v31.030303030303 h-31.030303030303Z  M992.9696969697 434.42424242424 h31.030303030303 v31.030303030303 h-31.030303030303Z  M31.030303030303 465.45454545455 h31.030303030303 v31.030303030303 h-31.030303030303Z  M62.060606060606 465.45454545455 h31.030303030303 v31.030303030303 h-31.030303030303Z  M310.30303030303 465.45454545455 h31.030303030303 v31.030303030303 h-31.030303030303Z  M341.33333333333 465.45454545455 h31.030303030303 v31.030303030303 h-31.030303030303Z  M372.36363636364 465.45454545455 h31.030303030303 v31.030303030303 h-31.030303030303Z  M403.39393939394 465.45454545455 h31.030303030303 v31.030303030303 h-31.030303030303Z  M434.42424242424 465.45454545455 h31.030303030303 v31.030303030303 h-31.030303030303Z  M496.48484848485 465.45454545455 h31.030303030303 v31.030303030303 h-31.030303030303Z  M527.51515151515 465.45454545455 h31.030303030303 v31.030303030303 h-31.030303030303Z  M558.54545454545 465.45454545455 h31.030303030303 v31.030303030303 h-31.030303030303Z  M589.57575757576 465.45454545455 h31.030303030303 v31.030303030303 h-31.030303030303Z  M651.63636363636 465.45454545455 h31.030303030303 v31.030303030303 h-31.030303030303Z  M682.66666666667 465.45454545455 h31.030303030303 v31.030303030303 h-31.030303030303Z  M744.72727272727 465.45454545455 h31.030303030303 v31.030303030303 h-31.030303030303Z  M806.78787878788 465.45454545455 h31.030303030303 v31.030303030303 h-31.030303030303Z  M837.81818181818 465.45454545455 h31.030303030303 v31.030303030303 h-31.030303030303Z  M961.93939393939 465.45454545455 h31.030303030303 v31.030303030303 h-31.030303030303Z  M992.9696969697 465.45454545455 h31.030303030303 v31.030303030303 h-31.030303030303Z  M0 496.48484848485 h31.030303030303 v31.030303030303 h-31.030303030303Z  M31.030303030303 496.48484848485 h31.030303030303 v31.030303030303 h-31.030303030303Z  M62.060606060606 496.48484848485 h31.030303030303 v31.030303030303 h-31.030303030303Z  M93.090909090909 496.48484848485 h31.030303030303 v31.030303030303 h-31.030303030303Z  M124.12121212121 496.48484848485 h31.030303030303 v31.030303030303 h-31.030303030303Z  M155.15151515152 496.48484848485 h31.030303030303 v31.030303030303 h-31.030303030303Z  M186.18181818182 496.48484848485 h31.030303030303 v31.030303030303 h-31.030303030303Z  M248.24242424242 496.48484848485 h31.030303030303 v31.030303030303 h-31.030303030303Z  M279.27272727273 496.48484848485 h31.030303030303 v31.030303030303 h-31.030303030303Z  M372.36363636364 496.48484848485 h31.030303030303 v31.030303030303 h-31.030303030303Z  M403.39393939394 496.48484848485 h31.030303030303 v31.030303030303 h-31.030303030303Z  M434.42424242424 496.48484848485 h31.030303030303 v31.030303030303 h-31.030303030303Z  M465.45454545455 496.48484848485 h31.030303030303 v31.030303030303 h-31.030303030303Z  M558.54545454545 496.48484848485 h31.030303030303 v31.030303030303 h-31.030303030303Z  M651.63636363636 496.48484848485 h31.030303030303 v31.030303030303 h-31.030303030303Z  M682.66666666667 496.48484848485 h31.030303030303 v31.030303030303 h-31.030303030303Z  M713.69696969697 496.48484848485 h31.030303030303 v31.030303030303 h-31.030303030303Z  M806.78787878788 496.48484848485 h31.030303030303 v31.030303030303 h-31.030303030303Z  M961.93939393939 496.48484848485 h31.030303030303 v31.030303030303 h-31.030303030303Z  M0 527.51515151515 h31.030303030303 v31.030303030303 h-31.030303030303Z  M62.060606060606 527.51515151515 h31.030303030303 v31.030303030303 h-31.030303030303Z  M155.15151515152 527.51515151515 h31.030303030303 v31.030303030303 h-31.030303030303Z  M217.21212121212 527.51515151515 h31.030303030303 v31.030303030303 h-31.030303030303Z  M279.27272727273 527.51515151515 h31.030303030303 v31.030303030303 h-31.030303030303Z  M310.30303030303 527.51515151515 h31.030303030303 v31.030303030303 h-31.030303030303Z  M465.45454545455 527.51515151515 h31.030303030303 v31.030303030303 h-31.030303030303Z  M589.57575757576 527.51515151515 h31.030303030303 v31.030303030303 h-31.030303030303Z  M620.60606060606 527.51515151515 h31.030303030303 v31.030303030303 h-31.030303030303Z  M806.78787878788 527.51515151515 h31.030303030303 v31.030303030303 h-31.030303030303Z  M837.81818181818 527.51515151515 h31.030303030303 v31.030303030303 h-31.030303030303Z  M899.87878787879 527.51515151515 h31.030303030303 v31.030303030303 h-31.030303030303Z  M930.90909090909 527.51515151515 h31.030303030303 v31.030303030303 h-31.030303030303Z  M992.9696969697 527.51515151515 h31.030303030303 v31.030303030303 h-31.030303030303Z  M62.060606060606 558.54545454545 h31.030303030303 v31.030303030303 h-31.030303030303Z  M93.090909090909 558.54545454545 h31.030303030303 v31.030303030303 h-31.030303030303Z  M186.18181818182 558.54545454545 h31.030303030303 v31.030303030303 h-31.030303030303Z  M248.24242424242 558.54545454545 h31.030303030303 v31.030303030303 h-31.030303030303Z  M341.33333333333 558.54545454545 h31.030303030303 v31.030303030303 h-31.030303030303Z  M372.36363636364 558.54545454545 h31.030303030303 v31.030303030303 h-31.030303030303Z  M465.45454545455 558.54545454545 h31.030303030303 v31.030303030303 h-31.030303030303Z  M496.48484848485 558.54545454545 h31.030303030303 v31.030303030303 h-31.030303030303Z  M558.54545454545 558.54545454545 h31.030303030303 v31.030303030303 h-31.030303030303Z  M620.60606060606 558.54545454545 h31.030303030303 v31.030303030303 h-31.030303030303Z  M682.66666666667 558.54545454545 h31.030303030303 v31.030303030303 h-31.030303030303Z  M775.75757575758 558.54545454545 h31.030303030303 v31.030303030303 h-31.030303030303Z  M806.78787878788 558.54545454545 h31.030303030303 v31.030303030303 h-31.030303030303Z  M930.90909090909 558.54545454545 h31.030303030303 v31.030303030303 h-31.030303030303Z  M961.93939393939 558.54545454545 h31.030303030303 v31.030303030303 h-31.030303030303Z  M992.9696969697 558.54545454545 h31.030303030303 v31.030303030303 h-31.030303030303Z  M0 589.57575757576 h31.030303030303 v31.030303030303 h-31.030303030303Z  M124.12121212121 589.57575757576 h31.030303030303 v31.030303030303 h-31.030303030303Z  M217.21212121212 589.57575757576 h31.030303030303 v31.030303030303 h-31.030303030303Z  M248.24242424242 589.57575757576 h31.030303030303 v31.030303030303 h-31.030303030303Z  M279.27272727273 589.57575757576 h31.030303030303 v31.030303030303 h-31.030303030303Z  M403.39393939394 589.57575757576 h31.030303030303 v31.030303030303 h-31.030303030303Z  M465.45454545455 589.57575757576 h31.030303030303 v31.030303030303 h-31.030303030303Z  M651.63636363636 589.57575757576 h31.030303030303 v31.030303030303 h-31.030303030303Z  M682.66666666667 589.57575757576 h31.030303030303 v31.030303030303 h-31.030303030303Z  M837.81818181818 589.57575757576 h31.030303030303 v31.030303030303 h-31.030303030303Z  M961.93939393939 589.57575757576 h31.030303030303 v31.030303030303 h-31.030303030303Z  M0 620.60606060606 h31.030303030303 v31.030303030303 h-31.030303030303Z  M62.060606060606 620.60606060606 h31.030303030303 v31.030303030303 h-31.030303030303Z  M124.12121212121 620.60606060606 h31.030303030303 v31.030303030303 h-31.030303030303Z  M186.18181818182 620.60606060606 h31.030303030303 v31.030303030303 h-31.030303030303Z  M217.21212121212 620.60606060606 h31.030303030303 v31.030303030303 h-31.030303030303Z  M279.27272727273 620.60606060606 h31.030303030303 v31.030303030303 h-31.030303030303Z  M341.33333333333 620.60606060606 h31.030303030303 v31.030303030303 h-31.030303030303Z  M372.36363636364 620.60606060606 h31.030303030303 v31.030303030303 h-31.030303030303Z  M403.39393939394 620.60606060606 h31.030303030303 v31.030303030303 h-31.030303030303Z  M434.42424242424 620.60606060606 h31.030303030303 v31.030303030303 h-31.030303030303Z  M465.45454545455 620.60606060606 h31.030303030303 v31.030303030303 h-31.030303030303Z  M620.60606060606 620.60606060606 h31.030303030303 v31.030303030303 h-31.030303030303Z  M651.63636363636 620.60606060606 h31.030303030303 v31.030303030303 h-31.030303030303Z  M744.72727272727 620.60606060606 h31.030303030303 v31.030303030303 h-31.030303030303Z  M806.78787878788 620.60606060606 h31.030303030303 v31.030303030303 h-31.030303030303Z  M899.87878787879 620.60606060606 h31.030303030303 v31.030303030303 h-31.030303030303Z  M961.93939393939 620.60606060606 h31.030303030303 v31.030303030303 h-31.030303030303Z  M992.9696969697 620.60606060606 h31.030303030303 v31.030303030303 h-31.030303030303Z  M31.030303030303 651.63636363636 h31.030303030303 v31.030303030303 h-31.030303030303Z  M62.060606060606 651.63636363636 h31.030303030303 v31.030303030303 h-31.030303030303Z  M93.090909090909 651.63636363636 h31.030303030303 v31.030303030303 h-31.030303030303Z  M124.12121212121 651.63636363636 h31.030303030303 v31.030303030303 h-31.030303030303Z  M155.15151515152 651.63636363636 h31.030303030303 v31.030303030303 h-31.030303030303Z  M217.21212121212 651.63636363636 h31.030303030303 v31.030303030303 h-31.030303030303Z  M279.27272727273 651.63636363636 h31.030303030303 v31.030303030303 h-31.030303030303Z  M341.33333333333 651.63636363636 h31.030303030303 v31.030303030303 h-31.030303030303Z  M403.39393939394 651.63636363636 h31.030303030303 v31.030303030303 h-31.030303030303Z  M465.45454545455 651.63636363636 h31.030303030303 v31.030303030303 h-31.030303030303Z  M558.54545454545 651.63636363636 h31.030303030303 v31.030303030303 h-31.030303030303Z  M651.63636363636 651.63636363636 h31.030303030303 v31.030303030303 h-31.030303030303Z  M713.69696969697 651.63636363636 h31.030303030303 v31.030303030303 h-31.030303030303Z  M744.72727272727 651.63636363636 h31.030303030303 v31.030303030303 h-31.030303030303Z  M775.75757575758 651.63636363636 h31.030303030303 v31.030303030303 h-31.030303030303Z  M899.87878787879 651.63636363636 h31.030303030303 v31.030303030303 h-31.030303030303Z  M961.93939393939 651.63636363636 h31.030303030303 v31.030303030303 h-31.030303030303Z  M992.9696969697 651.63636363636 h31.030303030303 v31.030303030303 h-31.030303030303Z  M0 682.66666666667 h31.030303030303 v31.030303030303 h-31.030303030303Z  M155.15151515152 682.66666666667 h31.030303030303 v31.030303030303 h-31.030303030303Z  M186.18181818182 682.66666666667 h31.030303030303 v31.030303030303 h-31.030303030303Z  M217.21212121212 682.66666666667 h31.030303030303 v31.030303030303 h-31.030303030303Z  M248.24242424242 682.66666666667 h31.030303030303 v31.030303030303 h-31.030303030303Z  M279.27272727273 682.66666666667 h31.030303030303 v31.030303030303 h-31.030303030303Z  M372.36363636364 682.66666666667 h31.030303030303 v31.030303030303 h-31.030303030303Z  M465.45454545455 682.66666666667 h31.030303030303 v31.030303030303 h-31.030303030303Z  M496.48484848485 682.66666666667 h31.030303030303 v31.030303030303 h-31.030303030303Z  M558.54545454545 682.66666666667 h31.030303030303 v31.030303030303 h-31.030303030303Z  M589.57575757576 682.66666666667 h31.030303030303 v31.030303030303 h-31.030303030303Z  M682.66666666667 682.66666666667 h31.030303030303 v31.030303030303 h-31.030303030303Z  M713.69696969697 682.66666666667 h31.030303030303 v31.030303030303 h-31.030303030303Z  M744.72727272727 682.66666666667 h31.030303030303 v31.030303030303 h-31.030303030303Z  M806.78787878788 682.66666666667 h31.030303030303 v31.030303030303 h-31.030303030303Z  M868.84848484848 682.66666666667 h31.030303030303 v31.030303030303 h-31.030303030303Z  M992.9696969697 682.66666666667 h31.030303030303 v31.030303030303 h-31.030303030303Z  M31.030303030303 713.69696969697 h31.030303030303 v31.030303030303 h-31.030303030303Z  M93.090909090909 713.69696969697 h31.030303030303 v31.030303030303 h-31.030303030303Z  M155.15151515152 713.69696969697 h31.030303030303 v31.030303030303 h-31.030303030303Z  M248.24242424242 713.69696969697 h31.030303030303 v31.030303030303 h-31.030303030303Z  M279.27272727273 713.69696969697 h31.030303030303 v31.030303030303 h-31.030303030303Z  M372.36363636364 713.69696969697 h31.030303030303 v31.030303030303 h-31.030303030303Z  M434.42424242424 713.69696969697 h31.030303030303 v31.030303030303 h-31.030303030303Z  M465.45454545455 713.69696969697 h31.030303030303 v31.030303030303 h-31.030303030303Z  M558.54545454545 713.69696969697 h31.030303030303 v31.030303030303 h-31.030303030303Z  M620.60606060606 713.69696969697 h31.030303030303 v31.030303030303 h-31.030303030303Z  M651.63636363636 713.69696969697 h31.030303030303 v31.030303030303 h-31.030303030303Z  M682.66666666667 713.69696969697 h31.030303030303 v31.030303030303 h-31.030303030303Z  M744.72727272727 713.69696969697 h31.030303030303 v31.030303030303 h-31.030303030303Z  M775.75757575758 713.69696969697 h31.030303030303 v31.030303030303 h-31.030303030303Z  M868.84848484848 713.69696969697 h31.030303030303 v31.030303030303 h-31.030303030303Z  M992.9696969697 713.69696969697 h31.030303030303 v31.030303030303 h-31.030303030303Z  M0 744.72727272727 h31.030303030303 v31.030303030303 h-31.030303030303Z  M62.060606060606 744.72727272727 h31.030303030303 v31.030303030303 h-31.030303030303Z  M93.090909090909 744.72727272727 h31.030303030303 v31.030303030303 h-31.030303030303Z  M124.12121212121 744.72727272727 h31.030303030303 v31.030303030303 h-31.030303030303Z  M155.15151515152 744.72727272727 h31.030303030303 v31.030303030303 h-31.030303030303Z  M186.18181818182 744.72727272727 h31.030303030303 v31.030303030303 h-31.030303030303Z  M217.21212121212 744.72727272727 h31.030303030303 v31.030303030303 h-31.030303030303Z  M310.30303030303 744.72727272727 h31.030303030303 v31.030303030303 h-31.030303030303Z  M341.33333333333 744.72727272727 h31.030303030303 v31.030303030303 h-31.030303030303Z  M372.36363636364 744.72727272727 h31.030303030303 v31.030303030303 h-31.030303030303Z  M651.63636363636 744.72727272727 h31.030303030303 v31.030303030303 h-31.030303030303Z  M713.69696969697 744.72727272727 h31.030303030303 v31.030303030303 h-31.030303030303Z  M961.93939393939 744.72727272727 h31.030303030303 v31.030303030303 h-31.030303030303Z  M248.24242424242 775.75757575758 h31.030303030303 v31.030303030303 h-31.030303030303Z  M403.39393939394 775.75757575758 h31.030303030303 v31.030303030303 h-31.030303030303Z  M434.42424242424 775.75757575758 h31.030303030303 v31.030303030303 h-31.030303030303Z  M496.48484848485 775.75757575758 h31.030303030303 v31.030303030303 h-31.030303030303Z  M558.54545454545 775.75757575758 h31.030303030303 v31.030303030303 h-31.030303030303Z  M620.60606060606 775.75757575758 h31.030303030303 v31.030303030303 h-31.030303030303Z  M651.63636363636 775.75757575758 h31.030303030303 v31.030303030303 h-31.030303030303Z  M682.66666666667 775.75757575758 h31.030303030303 v31.030303030303 h-31.030303030303Z  M713.69696969697 775.75757575758 h31.030303030303 v31.030303030303 h-31.030303030303Z  M899.87878787879 775.75757575758 h31.030303030303 v31.030303030303 h-31.030303030303Z  M992.9696969697 775.75757575758 h31.030303030303 v31.030303030303 h-31.030303030303Z  M279.27272727273 806.78787878788 h31.030303030303 v31.030303030303 h-31.030303030303Z  M434.42424242424 806.78787878788 h31.030303030303 v31.030303030303 h-31.030303030303Z  M465.45454545455 806.78787878788 h31.030303030303 v31.030303030303 h-31.030303030303Z  M496.48484848485 806.78787878788 h31.030303030303 v31.030303030303 h-31.030303030303Z  M682.66666666667 806.78787878788 h31.030303030303 v31.030303030303 h-31.030303030303Z  M713.69696969697 806.78787878788 h31.030303030303 v31.030303030303 h-31.030303030303Z  M899.87878787879 806.78787878788 h31.030303030303 v31.030303030303 h-31.030303030303Z  M930.90909090909 806.78787878788 h31.030303030303 v31.030303030303 h-31.030303030303Z  M961.93939393939 806.78787878788 h31.030303030303 v31.030303030303 h-31.030303030303Z  M992.9696969697 806.78787878788 h31.030303030303 v31.030303030303 h-31.030303030303Z  M248.24242424242 837.81818181818 h31.030303030303 v31.030303030303 h-31.030303030303Z  M279.27272727273 837.81818181818 h31.030303030303 v31.030303030303 h-31.030303030303Z  M310.30303030303 837.81818181818 h31.030303030303 v31.030303030303 h-31.030303030303Z  M372.36363636364 837.81818181818 h31.030303030303 v31.030303030303 h-31.030303030303Z  M434.42424242424 837.81818181818 h31.030303030303 v31.030303030303 h-31.030303030303Z  M465.45454545455 837.81818181818 h31.030303030303 v31.030303030303 h-31.030303030303Z  M496.48484848485 837.81818181818 h31.030303030303 v31.030303030303 h-31.030303030303Z  M558.54545454545 837.81818181818 h31.030303030303 v31.030303030303 h-31.030303030303Z  M651.63636363636 837.81818181818 h31.030303030303 v31.030303030303 h-31.030303030303Z  M682.66666666667 837.81818181818 h31.030303030303 v31.030303030303 h-31.030303030303Z  M992.9696969697 837.81818181818 h31.030303030303 v31.030303030303 h-31.030303030303Z  M248.24242424242 868.84848484848 h31.030303030303 v31.030303030303 h-31.030303030303Z  M372.36363636364 868.84848484848 h31.030303030303 v31.030303030303 h-31.030303030303Z  M403.39393939394 868.84848484848 h31.030303030303 v31.030303030303 h-31.030303030303Z  M465.45454545455 868.84848484848 h31.030303030303 v31.030303030303 h-31.030303030303Z  M527.51515151515 868.84848484848 h31.030303030303 v31.030303030303 h-31.030303030303Z  M558.54545454545 868.84848484848 h31.030303030303 v31.030303030303 h-31.030303030303Z  M589.57575757576 868.84848484848 h31.030303030303 v31.030303030303 h-31.030303030303Z  M682.66666666667 868.84848484848 h31.030303030303 v31.030303030303 h-31.030303030303Z  M899.87878787879 868.84848484848 h31.030303030303 v31.030303030303 h-31.030303030303Z  M961.93939393939 868.84848484848 h31.030303030303 v31.030303030303 h-31.030303030303Z  M279.27272727273 899.87878787879 h31.030303030303 v31.030303030303 h-31.030303030303Z  M310.30303030303 899.87878787879 h31.030303030303 v31.030303030303 h-31.030303030303Z  M341.33333333333 899.87878787879 h31.030303030303 v31.030303030303 h-31.030303030303Z  M434.42424242424 899.87878787879 h31.030303030303 v31.030303030303 h-31.030303030303Z  M465.45454545455 899.87878787879 h31.030303030303 v31.030303030303 h-31.030303030303Z  M558.54545454545 899.87878787879 h31.030303030303 v31.030303030303 h-31.030303030303Z  M589.57575757576 899.87878787879 h31.030303030303 v31.030303030303 h-31.030303030303Z  M682.66666666667 899.87878787879 h31.030303030303 v31.030303030303 h-31.030303030303Z  M713.69696969697 899.87878787879 h31.030303030303 v31.030303030303 h-31.030303030303Z  M868.84848484848 899.87878787879 h31.030303030303 v31.030303030303 h-31.030303030303Z  M930.90909090909 899.87878787879 h31.030303030303 v31.030303030303 h-31.030303030303Z  M248.24242424242 930.90909090909 h31.030303030303 v31.030303030303 h-31.030303030303Z  M279.27272727273 930.90909090909 h31.030303030303 v31.030303030303 h-31.030303030303Z  M341.33333333333 930.90909090909 h31.030303030303 v31.030303030303 h-31.030303030303Z  M372.36363636364 930.90909090909 h31.030303030303 v31.030303030303 h-31.030303030303Z  M403.39393939394 930.90909090909 h31.030303030303 v31.030303030303 h-31.030303030303Z  M465.45454545455 930.90909090909 h31.030303030303 v31.030303030303 h-31.030303030303Z  M527.51515151515 930.90909090909 h31.030303030303 v31.030303030303 h-31.030303030303Z  M589.57575757576 930.90909090909 h31.030303030303 v31.030303030303 h-31.030303030303Z  M682.66666666667 930.90909090909 h31.030303030303 v31.030303030303 h-31.030303030303Z  M713.69696969697 930.90909090909 h31.030303030303 v31.030303030303 h-31.030303030303Z  M744.72727272727 930.90909090909 h31.030303030303 v31.030303030303 h-31.030303030303Z  M775.75757575758 930.90909090909 h31.030303030303 v31.030303030303 h-31.030303030303Z  M837.81818181818 930.90909090909 h31.030303030303 v31.030303030303 h-31.030303030303Z  M868.84848484848 930.90909090909 h31.030303030303 v31.030303030303 h-31.030303030303Z  M992.9696969697 930.90909090909 h31.030303030303 v31.030303030303 h-31.030303030303Z  M310.30303030303 961.93939393939 h31.030303030303 v31.030303030303 h-31.030303030303Z  M341.33333333333 961.93939393939 h31.030303030303 v31.030303030303 h-31.030303030303Z  M372.36363636364 961.93939393939 h31.030303030303 v31.030303030303 h-31.030303030303Z  M403.39393939394 961.93939393939 h31.030303030303 v31.030303030303 h-31.030303030303Z  M496.48484848485 961.93939393939 h31.030303030303 v31.030303030303 h-31.030303030303Z  M558.54545454545 961.93939393939 h31.030303030303 v31.030303030303 h-31.030303030303Z  M651.63636363636 961.93939393939 h31.030303030303 v31.030303030303 h-31.030303030303Z  M713.69696969697 961.93939393939 h31.030303030303 v31.030303030303 h-31.030303030303Z  M744.72727272727 961.93939393939 h31.030303030303 v31.030303030303 h-31.030303030303Z  M837.81818181818 961.93939393939 h31.030303030303 v31.030303030303 h-31.030303030303Z  M899.87878787879 961.93939393939 h31.030303030303 v31.030303030303 h-31.030303030303Z  M961.93939393939 961.93939393939 h31.030303030303 v31.030303030303 h-31.030303030303Z  M279.27272727273 992.9696969697 h31.030303030303 v31.030303030303 h-31.030303030303Z  M310.30303030303 992.9696969697 h31.030303030303 v31.030303030303 h-31.030303030303Z  M372.36363636364 992.9696969697 h31.030303030303 v31.030303030303 h-31.030303030303Z  M403.39393939394 992.9696969697 h31.030303030303 v31.030303030303 h-31.030303030303Z  M434.42424242424 992.9696969697 h31.030303030303 v31.030303030303 h-31.030303030303Z  M465.45454545455 992.9696969697 h31.030303030303 v31.030303030303 h-31.030303030303Z  M527.51515151515 992.9696969697 h31.030303030303 v31.030303030303 h-31.030303030303Z  M589.57575757576 992.9696969697 h31.030303030303 v31.030303030303 h-31.030303030303Z  M620.60606060606 992.9696969697 h31.030303030303 v31.030303030303 h-31.030303030303Z  M682.66666666667 992.9696969697 h31.030303030303 v31.030303030303 h-31.030303030303Z  M713.69696969697 992.9696969697 h31.030303030303 v31.030303030303 h-31.030303030303Z  M744.72727272727 992.9696969697 h31.030303030303 v31.030303030303 h-31.030303030303Z  M775.75757575758 992.9696969697 h31.030303030303 v31.030303030303 h-31.030303030303Z  M837.81818181818 992.9696969697 h31.030303030303 v31.030303030303 h-31.030303030303Z  M868.84848484848 992.9696969697 h31.030303030303 v31.030303030303 h-31.030303030303Z  M899.87878787879 992.9696969697 h31.030303030303 v31.030303030303 h-31.030303030303Z  M961.93939393939 992.9696969697 h31.030303030303 v31.030303030303 h-31.030303030303Z  M992.9696969697 992.9696969697 h31.030303030303 v31.030303030303 h-31.030303030303Z" /></symbol><symbol id="symbol-finder" class="qrcode-symbol finder"><g transform="translate(0, 0)"><g transform="translate(0, 0)"><use x="0" y="0" href="#symbol-finder-unit" width="217.21212121212" height="217.21212121212" fill="white" transform="scale(1, 1)" transform-origin="108.60606060606 108.60606060606" /></g></g><g transform="translate(1024, 0)"><g transform="translate(-217.21212121212, 0)"><use x="0" y="0" href="#symbol-finder-unit" width="217.21212121212" height="217.21212121212" fill="white" transform="scale(1, 1)" transform-origin="108.60606060606 108.60606060606" /></g></g><g transform="translate(0, 1024)"><g transform="translate(0, -217.21212121212)"><use x="0" y="0" href="#symbol-finder-unit" width="217.21212121212" height="217.21212121212" fill="white" transform="scale(1, 1)" transform-origin="108.60606060606 108.60606060606" /></g></g></symbol><symbol id="symbol-alignment" class="qrcode-symbol alignment"><g transform="translate(744.72727272727, 744.72727272727)"><g><use x="0" y="0" href="#symbol-alignment-unit" width="155.15151515152" height="155.15151515152" fill="white" transform-origin="77.575757575758 77.575757575758" /></g></g></symbol><symbol id="symbol-finder-dot" class="qrcode-symbol finder-dot"><g transform="translate(0, 0)"><g transform="translate(0, 0)"><use x="0" y="0" href="#symbol-finder-dot-unit" width="217.21212121212" height="217.21212121212" fill="white" transform="scale(1, 1)" transform-origin="108.60606060606 108.60606060606" /></g></g><g transform="translate(1024, 0)"><g transform="translate(-217.21212121212, 0)"><use x="0" y="0" href="#symbol-finder-dot-unit" width="217.21212121212" height="217.21212121212" fill="white" transform="scale(1, 1)" transform-origin="108.60606060606 108.60606060606" /></g></g><g transform="translate(0, 1024)"><g transform="translate(0, -217.21212121212)"><use x="0" y="0" href="#symbol-finder-dot-unit" width="217.21212121212" height="217.21212121212" fill="white" transform="scale(1, 1)" transform-origin="108.60606060606 108.60606060606" /></g></g></symbol><mask id="mask-data"><use x="0" y="0" href="#symbol-data" fill="white" /></mask><mask id="mask-finder"><use x="0" y="0" href="#symbol-finder" /></mask><mask id="mask-alignment"><use x="0" y="0" href="#symbol-alignment" fill="white" /></mask><mask id="mask-finder-dot"><use x="0" y="0" href="#symbol-finder-dot" /></mask><mask id="dark-mask"><use x="0" y="0" href="#symbol-data" width="1024" height="1024" fill="white" /><use x="0" y="0" href="#symbol-finder" width="1024" height="1024" fill="white" /><use x="0" y="0" href="#symbol-alignment" width="1024" height="1024" fill="white" /><use x="0" y="0" href="#symbol-finder-dot" width="1024" height="1024" fill="white" /></mask><g class="foreground-5"><g class="foreground-4" fill="url(#gradient-data-fill)"><mask id="mask-transform-reset-by-gradient"><g class="foreground-3" fill="white"><g class="foreground-2"><g class="foreground-1"><g class="foreground-0"><rect x="0" y="0" width="1024" height="1024" mask="url(#mask-joined-for-gradient)" class="dark type-data" /></g></g></g></g></mask><rect x="0" y="0" width="1024" height="1024" mask="url(#mask-transform-reset-by-gradient)" /></g></g><symbol id="symbol-finder-unit" viewBox="0 0 700 700"><path d="M 595.57337,681.84336 H 108.43385 c -48.585309,0 -87.976308,-39.38494 -87.976308,-87.9763 V 106.72754 c 0,-48.585316 39.38494,-87.976314 87.976308,-87.976314 h 487.13952 c 48.58531,0 87.9763,39.384943 87.9763,87.976314 v 487.13952 c 0,48.58531 -39.39099,87.9763 -87.9763,87.9763 z M 147.72344,597.08922 h 408.56033 c 23.4769,0 42.50723,-19.03032 42.50723,-42.50722 l 0.006,-408.57547 c 0,-23.47689 -19.03032,-42.50722 -42.50722,-42.50722 h -408.5756 c -23.47689,0 -42.50722,19.03033 -42.50722,42.50722 v 408.56034 c 0.006,23.48294 19.03639,42.51328 42.50722,42.51328 z" transform="scale(1)" /></symbol><symbol id="symbol-finder-dot-unit" viewBox="0 0 700 700"><path d="m 233.83773,490.33871 h 232.32579 c 13.35003,0 24.17152,-10.82149 24.17152,-24.17152 l 0.004,-232.33439 c 0,-13.35002 -10.82151,-24.17152 -24.17152,-24.17152 H 233.83248 c -13.35002,0 -24.17153,10.8215 -24.17153,24.17152 v 232.32578 c 0.004,13.35347 10.82494,24.17497 24.17152,24.17497 z" transform="scale(1)" /></symbol><symbol id="symbol-alignment-unit" viewBox="0 0 700 700"><g transform="scale(0.9)" transform-origin="350 350" class="alignment-outer"><path d="M 595.57337,681.84336 H 108.43385 c -48.585309,0 -87.976308,-39.38494 -87.976308,-87.9763 V 106.72754 c 0,-48.585316 39.38494,-87.976314 87.976308,-87.976314 h 487.13952 c 48.58531,0 87.9763,39.384943 87.9763,87.976314 v 487.13952 c 0,48.58531 -39.39099,87.9763 -87.9763,87.9763 z M 147.72344,597.08922 h 408.56033 c 23.4769,0 42.50723,-19.03032 42.50723,-42.50722 l 0.006,-408.57547 c 0,-23.47689 -19.03032,-42.50722 -42.50722,-42.50722 h -408.5756 c -23.47689,0 -42.50722,19.03033 -42.50722,42.50722 v 408.56034 c 0.006,23.48294 19.03639,42.51328 42.50722,42.51328 z" transform="scale(1)" stroke="white" stroke-width="70" /></g><g transform="scale(0.4)" transform-origin="350 350"><path d="m 233.83773,490.33871 h 232.32579 c 13.35003,0 24.17152,-10.82149 24.17152,-24.17152 l 0.004,-232.33439 c 0,-13.35002 -10.82151,-24.17152 -24.17152,-24.17152 H 233.83248 c -13.35002,0 -24.17153,10.8215 -24.17153,24.17152 v 232.32578 c 0.004,13.35347 10.82494,24.17497 24.17152,24.17497 z" transform="scale(1)" /></g></symbol><mask id="mask-joined-for-gradient"><rect x="0" y="0" width="1024" height="1024" class="" mask="url(#mask-data)" fill="white" /><rect x="0" y="0" width="1024" height="1024" class="" mask="url(#mask-finder)" fill="white" /><rect x="0" y="0" width="1024" height="1024" class="" mask="url(#mask-alignment)" fill="white" /><rect x="0" y="0" width="1024" height="1024" class="" mask="url(#mask-finder-dot)" fill="white" /></mask><linearGradient x1="0%" y1="0%" x2="100%" y2="100%" id="gradient-data-fill"><stop offset="0%" stop-color="#000000" opacity="1" /><stop offset="33%" stop-color="#000000" opacity="1" /><stop offset="70%" stop-color="#000000" opacity="1" /><stop offset="100%" stop-color="#000000" opacity="1" /></linearGradient></svg>