<svg width="449" height="444" viewBox="0 0 449 444" fill="none" xmlns="http://www.w3.org/2000/svg">
<ellipse cx="224.271" cy="222.289" rx="223.943" ry="221.418" fill="black"/>
<path d="M136.754 349.488C136.754 352.419 138.417 355.095 141.044 356.394L145.52 358.607C149.557 360.602 154.285 357.665 154.285 353.162V202.167C154.285 196.462 160.269 192.736 165.388 195.253L212.529 218.427C217.649 220.943 223.632 217.217 223.632 211.513V204.625L67.7969 127.586V142.072C67.7969 144.997 69.4526 147.669 72.0712 148.971L132.48 179.003C135.098 180.305 136.754 182.977 136.754 185.901V349.488Z" fill="white"/>
<path d="M136.754 349.488C136.754 352.419 138.417 355.095 141.044 356.394L145.52 358.607C149.557 360.602 154.285 357.665 154.285 353.162V202.167C154.285 196.462 160.269 192.736 165.388 195.253L212.529 218.427C217.649 220.943 223.632 217.217 223.632 211.513V204.625L67.7969 127.586V142.072C67.7969 144.997 69.4526 147.669 72.0712 148.971L132.48 179.003C135.098 180.305 136.754 182.977 136.754 185.901V349.488Z" fill="white"/>
<path d="M223.632 204.625L223.632 386.358C223.632 391.361 228.886 394.625 233.372 392.408L238.822 389.713C241.449 388.415 243.111 385.738 243.111 382.807V324.969C243.111 322.038 244.774 319.362 247.401 318.063L348.87 267.901C353.99 265.369 359.988 269.095 359.988 274.807V318.949C359.988 323.952 365.242 327.216 369.727 324.998L375.177 322.304C377.804 321.006 379.467 318.329 379.467 315.398V127.586L223.632 204.625Z" fill="white"/>
<path d="M223.632 204.625L223.632 386.358C223.632 391.361 228.886 394.625 233.372 392.408L238.822 389.713C241.449 388.415 243.111 385.738 243.111 382.807V324.969C243.111 322.038 244.774 319.362 247.401 318.063L348.87 267.901C353.99 265.369 359.988 269.095 359.988 274.807V318.949C359.988 323.952 365.242 327.216 369.727 324.998L375.177 322.304C377.804 321.006 379.467 318.329 379.467 315.398V127.586L223.632 204.625Z" fill="white"/>
<path d="M84.0695 132.249C81.9166 133.316 79.3894 133.317 77.2357 132.252L67.7969 127.586L220.218 52.2347C222.37 51.1709 224.894 51.1709 227.046 52.2347L379.467 127.586L364.663 134.905L227.08 64.8698C224.91 63.7654 222.347 63.7514 220.165 64.832L84.0695 132.249Z" fill="white"/>
<path d="M67.7969 127.586V142.072C67.7969 144.997 69.4526 147.669 72.0712 148.971L132.48 179.003C135.098 180.305 136.754 182.977 136.754 185.901V349.488C136.754 352.419 138.417 355.095 141.044 356.394L145.52 358.607V358.607C149.557 360.602 154.285 357.665 154.285 353.162V202.167C154.285 196.462 160.269 192.736 165.388 195.253L212.529 218.427C217.649 220.943 223.632 217.217 223.632 211.513V204.625M67.7969 127.586L223.632 204.625M67.7969 127.586L77.2357 132.252C79.3894 133.317 81.9166 133.316 84.0695 132.249L220.165 64.832C222.347 63.7514 224.91 63.7654 227.08 64.8698L364.663 134.905L379.467 127.586M67.7969 127.586L220.218 52.2347C222.37 51.1709 224.894 51.1709 227.046 52.2347L379.467 127.586M223.632 204.625L223.632 386.358C223.632 391.361 228.886 394.625 233.372 392.408V392.408L238.822 389.713C241.449 388.415 243.111 385.738 243.111 382.807V324.969C243.111 322.038 244.774 319.362 247.401 318.063L348.87 267.901C353.99 265.369 359.988 269.095 359.988 274.807V318.949C359.988 323.952 365.242 327.216 369.727 324.998V324.998L375.177 322.304C377.804 321.006 379.467 318.329 379.467 315.398V127.586M223.632 204.625L379.467 127.586M247.401 212.134L348.87 161.972C353.99 159.441 359.988 163.166 359.988 168.878V238.359C359.988 241.29 358.325 243.966 355.698 245.265L254.229 295.427C249.109 297.959 243.111 294.233 243.111 288.521V219.04C243.111 216.11 244.774 213.433 247.401 212.134Z" stroke="white" stroke-width="7.7039" stroke-linejoin="round"/>
<path d="M357.841 244.204L248.668 298.175C246.108 299.44 243.109 297.577 243.109 294.722V216.647C243.109 215.181 243.941 213.843 245.254 213.194L354.427 159.223C356.987 157.957 359.986 159.82 359.986 162.676V240.751C359.986 242.216 359.154 243.555 357.841 244.204Z" fill="black"/>
</svg>
